<svg width="98" height="11" viewBox="0 0 98 11" fill="none" xmlns="http://www.w3.org/2000/svg">
<path d="M4.173 10H3.237V1.628H0.156V0.796H7.254V1.628H4.173V10ZM7.72992 10H6.76792L9.74492 3.097H10.5899L13.5539 10H12.5269L11.8119 8.271H8.45792L7.72992 10ZM8.78292 7.478H11.4869L10.1479 4.15L8.78292 7.478ZM17.2447 10H16.3347V7.01L13.7607 3.097H14.8527L16.8027 6.256L18.7527 3.097H19.8447L17.2447 7.01V10ZM28.1412 6.529C28.1412 7.05767 28.0459 7.543 27.8552 7.985C27.6732 8.427 27.4176 8.80833 27.0882 9.129C26.7676 9.44967 26.3819 9.701 25.9312 9.883C25.4892 10.065 25.0082 10.156 24.4882 10.156C23.9682 10.156 23.4872 10.065 23.0452 9.883C22.6032 9.701 22.2176 9.44967 21.8882 9.129C21.5676 8.80833 21.3162 8.427 21.1342 7.985C20.9522 7.543 20.8612 7.05767 20.8612 6.529C20.8612 6.00033 20.9522 5.515 21.1342 5.073C21.3162 4.631 21.5676 4.254 21.8882 3.942C22.2176 3.62133 22.6032 3.37433 23.0452 3.201C23.4872 3.02767 23.9682 2.941 24.4882 2.941C25.0082 2.941 25.4892 3.02767 25.9312 3.201C26.3819 3.37433 26.7676 3.62133 27.0882 3.942C27.4176 4.254 27.6732 4.631 27.8552 5.073C28.0459 5.515 28.1412 6.00033 28.1412 6.529ZM27.1532 6.529C27.1532 6.14767 27.0882 5.788 26.9582 5.45C26.8369 5.112 26.6592 4.81733 26.4252 4.566C26.1999 4.306 25.9226 4.10233 25.5932 3.955C25.2639 3.80767 24.8956 3.734 24.4882 3.734C24.0809 3.734 23.7126 3.80767 23.3832 3.955C23.0626 4.10233 22.7852 4.306 22.5512 4.566C22.3259 4.81733 22.1526 5.112 22.0312 5.45C21.9099 5.788 21.8492 6.14767 21.8492 6.529C21.8492 6.91033 21.9099 7.27433 22.0312 7.621C22.1612 7.959 22.3389 8.258 22.5642 8.518C22.7896 8.76933 23.0626 8.96867 23.3832 9.116C23.7126 9.26333 24.0809 9.337 24.4882 9.337C24.8956 9.337 25.2639 9.26333 25.5932 9.116C25.9226 8.96867 26.1999 8.76933 26.4252 8.518C26.6592 8.258 26.8369 7.959 26.9582 7.621C27.0882 7.27433 27.1532 6.91033 27.1532 6.529ZM43.4796 5.398C43.4796 6.1 43.3583 6.74567 43.1156 7.335C42.8729 7.92433 42.5349 8.43567 42.1016 8.869C41.6769 9.29367 41.1699 9.62733 40.5806 9.87C39.9999 10.1127 39.3673 10.234 38.6826 10.234C37.9979 10.234 37.3609 10.1127 36.7716 9.87C36.1909 9.62733 35.6839 9.29367 35.2506 8.869C34.8259 8.43567 34.4923 7.92433 34.2496 7.335C34.0069 6.74567 33.8856 6.1 33.8856 5.398C33.8856 4.696 34.0069 4.05033 34.2496 3.461C34.4923 2.87167 34.8259 2.36467 35.2506 1.94C35.6839 1.50667 36.1909 1.16867 36.7716 0.926C37.3609 0.683333 37.9979 0.562 38.6826 0.562C39.3673 0.562 39.9999 0.683333 40.5806 0.926C41.1699 1.16867 41.6769 1.50667 42.1016 1.94C42.5349 2.36467 42.8729 2.87167 43.1156 3.461C43.3583 4.05033 43.4796 4.696 43.4796 5.398ZM42.4916 5.398C42.4916 4.86067 42.4049 4.34933 42.2316 3.864C42.0583 3.37867 41.8069 2.954 41.4776 2.59C41.1483 2.21733 40.7453 1.92267 40.2686 1.706C39.8006 1.48933 39.2719 1.381 38.6826 1.381C38.0933 1.381 37.5603 1.48933 37.0836 1.706C36.6156 1.92267 36.2169 2.21733 35.8876 2.59C35.5583 2.954 35.3069 3.37867 35.1336 3.864C34.9603 4.34933 34.8736 4.86067 34.8736 5.398C34.8736 5.93533 34.9603 6.44667 35.1336 6.932C35.3069 7.41733 35.5583 7.842 35.8876 8.206C36.2169 8.57 36.6156 8.86033 37.0836 9.077C37.5603 9.29367 38.0933 9.402 38.6826 9.402C39.2719 9.402 39.8006 9.29367 40.2686 9.077C40.7453 8.86033 41.1483 8.57 41.4776 8.206C41.8069 7.842 42.0583 7.41733 42.2316 6.932C42.4049 6.44667 42.4916 5.93533 42.4916 5.398ZM49.1295 4.371C48.9822 4.17167 48.7915 4.01567 48.5575 3.903C48.3235 3.78167 48.0592 3.721 47.7645 3.721C47.6085 3.721 47.4482 3.74267 47.2835 3.786C47.1189 3.82933 46.9715 3.89867 46.8415 3.994C46.7115 4.08067 46.6032 4.19333 46.5165 4.332C46.4385 4.47067 46.3995 4.63967 46.3995 4.839C46.3995 5.03833 46.4342 5.203 46.5035 5.333C46.5815 5.45433 46.6855 5.56267 46.8155 5.658C46.9455 5.74467 47.0929 5.81833 47.2575 5.879C47.4309 5.93967 47.6172 6.00033 47.8165 6.061C48.0505 6.139 48.2889 6.22133 48.5315 6.308C48.7742 6.39467 48.9909 6.51167 49.1815 6.659C49.3809 6.80633 49.5412 6.99267 49.6625 7.218C49.7925 7.43467 49.8575 7.71633 49.8575 8.063C49.8575 8.41833 49.7882 8.73033 49.6495 8.999C49.5195 9.259 49.3419 9.47567 49.1165 9.649C48.8999 9.82233 48.6485 9.948 48.3625 10.026C48.0852 10.1127 47.7949 10.156 47.4915 10.156C47.0582 10.156 46.6379 10.0693 46.2305 9.896C45.8232 9.72267 45.4939 9.47133 45.2425 9.142L45.9705 8.531C46.1179 8.78233 46.3259 8.986 46.5945 9.142C46.8719 9.28933 47.1752 9.363 47.5045 9.363C47.6692 9.363 47.8339 9.34133 47.9985 9.298C48.1719 9.246 48.3279 9.17233 48.4665 9.077C48.6052 8.973 48.7179 8.84733 48.8045 8.7C48.8912 8.544 48.9345 8.362 48.9345 8.154C48.9345 7.93733 48.8869 7.75967 48.7915 7.621C48.7049 7.47367 48.5835 7.35233 48.4275 7.257C48.2802 7.16167 48.1069 7.08367 47.9075 7.023C47.7082 6.95367 47.5002 6.88433 47.2835 6.815C47.0582 6.74567 46.8372 6.66767 46.6205 6.581C46.4039 6.48567 46.2089 6.36433 46.0355 6.217C45.8709 6.06967 45.7365 5.88767 45.6325 5.671C45.5285 5.45433 45.4765 5.19 45.4765 4.878C45.4765 4.54 45.5459 4.24967 45.6845 4.007C45.8232 3.75567 46.0009 3.552 46.2175 3.396C46.4429 3.24 46.6942 3.12733 46.9715 3.058C47.2489 2.98 47.5305 2.941 47.8165 2.941C48.2239 2.941 48.6009 3.01467 48.9475 3.162C49.2942 3.30933 49.5715 3.50433 49.7795 3.747L49.1295 4.371ZM52.2651 3.097H53.1751V6.022H57.0101V3.097H57.9201V10H57.0101V6.815H53.1751V10H52.2651V3.097ZM61.6931 10H60.7831V3.097H61.6931V10ZM69.2461 8.674H69.2721V3.097H70.1821V10H69.0381L65.4761 4.306H65.4631V10H64.5531V3.097H65.7361L69.2461 8.674ZM75.5938 10.156C75.1258 10.156 74.7228 10.078 74.3848 9.922C74.0554 9.766 73.7824 9.56233 73.5658 9.311C73.3491 9.051 73.1888 8.75633 73.0848 8.427C72.9894 8.09767 72.9418 7.75967 72.9418 7.413V3.097H73.8518V7.348C73.8518 7.59933 73.8778 7.842 73.9298 8.076C73.9904 8.31 74.0901 8.52233 74.2288 8.713C74.3674 8.895 74.5451 9.04233 74.7618 9.155C74.9871 9.26767 75.2644 9.324 75.5938 9.324C75.9144 9.324 76.1874 9.26767 76.4128 9.155C76.6381 9.04233 76.8158 8.895 76.9458 8.713C77.0844 8.52233 77.1841 8.31 77.2448 8.076C77.3054 7.842 77.3358 7.59933 77.3358 7.348V3.097H78.2458V7.413C78.2458 7.75967 78.1938 8.09767 78.0898 8.427C77.9858 8.75633 77.8254 9.051 77.6088 9.311C77.4008 9.56233 77.1278 9.766 76.7898 9.922C76.4604 10.078 76.0618 10.156 75.5938 10.156ZM82.6562 8.674H82.6822L84.3072 3.097H85.3342L86.9592 8.674H86.9852L88.5322 3.097H89.5072L87.4792 10H86.5042L84.8272 4.384H84.8142L83.1112 10H82.1492L80.1212 3.097H81.0962L82.6562 8.674ZM91.196 10H90.234L93.211 3.097H94.056L97.02 10H95.993L95.278 8.271H91.924L91.196 10ZM92.249 7.478H94.953L93.614 4.15L92.249 7.478Z" fill="#4F4F4F"/>
</svg>
