<svg width="130" height="13" viewBox="0 0 130 13" fill="none" xmlns="http://www.w3.org/2000/svg">
<path d="M11.088 10.24C10.64 10.848 10.0587 11.344 9.344 11.728C8.62933 12.1013 7.77067 12.288 6.768 12.288C5.904 12.288 5.104 12.144 4.368 11.856C3.64267 11.5573 3.01333 11.1467 2.48 10.624C1.95733 10.0907 1.54667 9.46133 1.248 8.736C0.949333 8 0.8 7.19467 0.8 6.32C0.8 5.43467 0.949333 4.62933 1.248 3.904C1.55733 3.168 1.97867 2.544 2.512 2.032C3.056 1.50933 3.696 1.104 4.432 0.815999C5.168 0.528 5.968 0.384 6.832 0.384C7.216 0.384 7.60533 0.421333 8 0.495999C8.39467 0.570666 8.77333 0.682666 9.136 0.832C9.49867 0.981333 9.82933 1.168 10.128 1.392C10.4267 1.60533 10.6827 1.856 10.896 2.144L9.648 3.104C9.37067 2.72 8.976 2.40533 8.464 2.16C7.96267 1.904 7.41867 1.776 6.832 1.776C6.17067 1.776 5.57333 1.89867 5.04 2.144C4.51733 2.37867 4.06933 2.704 3.696 3.12C3.32267 3.536 3.03467 4.02133 2.832 4.576C2.62933 5.12 2.528 5.70133 2.528 6.32C2.528 6.96 2.624 7.55733 2.816 8.112C3.01867 8.66667 3.30133 9.152 3.664 9.568C4.03733 9.97333 4.48533 10.2933 5.008 10.528C5.54133 10.7627 6.13333 10.88 6.784 10.88C7.424 10.88 8.00533 10.752 8.528 10.496C9.05067 10.24 9.48267 9.86667 9.824 9.376L11.088 10.24ZM16.5784 12H14.9944V2.064H11.3624V0.672H20.2104V2.064H16.5784V12ZM32.6594 6.32C32.6594 7.19467 32.5047 8 32.1954 8.736C31.8967 9.46133 31.4807 10.0907 30.9474 10.624C30.414 11.1467 29.7794 11.5573 29.0434 11.856C28.3074 12.144 27.5074 12.288 26.6434 12.288C25.7794 12.288 24.9794 12.144 24.2434 11.856C23.518 11.5573 22.8887 11.1467 22.3554 10.624C21.822 10.0907 21.406 9.46133 21.1074 8.736C20.8087 8 20.6594 7.19467 20.6594 6.32C20.6594 5.43467 20.8087 4.62933 21.1074 3.904C21.406 3.168 21.822 2.544 22.3554 2.032C22.8887 1.50933 23.518 1.104 24.2434 0.815999C24.9794 0.528 25.7794 0.384 26.6434 0.384C27.5074 0.384 28.3074 0.528 29.0434 0.815999C29.7794 1.104 30.414 1.50933 30.9474 2.032C31.4807 2.544 31.8967 3.168 32.1954 3.904C32.5047 4.62933 32.6594 5.43467 32.6594 6.32ZM30.9474 6.32C30.9474 5.70133 30.846 5.12 30.6434 4.576C30.4407 4.02133 30.1527 3.536 29.7794 3.12C29.406 2.704 28.9527 2.37867 28.4194 2.144C27.8967 1.89867 27.3047 1.776 26.6434 1.776C25.9927 1.776 25.4007 1.89867 24.8674 2.144C24.3447 2.37867 23.8967 2.704 23.5234 3.12C23.1607 3.536 22.878 4.02133 22.6754 4.576C22.4727 5.12 22.3714 5.70133 22.3714 6.32C22.3714 6.94933 22.4727 7.54133 22.6754 8.096C22.878 8.65067 23.166 9.136 23.5394 9.552C23.9127 9.95733 24.3607 10.2773 24.8834 10.512C25.406 10.7467 25.9927 10.864 26.6434 10.864C27.294 10.864 27.886 10.7467 28.4194 10.512C28.9527 10.2773 29.406 9.95733 29.7794 9.552C30.1527 9.136 30.4407 8.65067 30.6434 8.096C30.846 7.54133 30.9474 6.94933 30.9474 6.32ZM44.6695 9.376H44.7015L48.0455 0.672H50.5095V12H48.9255V2.528H48.8935L45.1335 12H44.1255L40.3815 2.528H40.3495V12H38.8135V0.672H41.2775L44.6695 9.376ZM53.5546 12H51.9386L55.5866 3.424H57.0106L60.6426 12H58.9786L58.1786 10.016H54.3706L53.5546 12ZM54.8346 8.784H57.6986L56.2746 5.184L54.8346 8.784ZM64.7471 12H63.2111V8.544L60.1071 3.424H61.8351L64.0271 7.312L66.2191 3.424H67.8671L64.7471 8.544V12ZM79.2056 9.968L81.2056 12H79.1736L78.3416 11.12C78.043 11.472 77.6856 11.744 77.2696 11.936C76.8536 12.128 76.3576 12.224 75.7816 12.224C75.4083 12.224 75.0456 12.1707 74.6936 12.064C74.3416 11.968 74.0323 11.8187 73.7656 11.616C73.499 11.4027 73.2856 11.1413 73.1256 10.832C72.9656 10.512 72.8856 10.144 72.8856 9.728C72.8856 9.13067 73.0563 8.62933 73.3976 8.224C73.739 7.808 74.1603 7.47733 74.6616 7.232C74.3843 6.912 74.171 6.608 74.0216 6.32C73.883 6.02133 73.8136 5.70133 73.8136 5.36C73.8136 5.02933 73.8776 4.73067 74.0056 4.464C74.1336 4.18667 74.3043 3.95733 74.5176 3.776C74.7416 3.59467 74.9976 3.456 75.2856 3.36C75.5736 3.25333 75.8776 3.2 76.1976 3.2C76.5176 3.2 76.8163 3.248 77.0936 3.344C77.3816 3.44 77.6323 3.57867 77.8456 3.76C78.059 3.93067 78.2243 4.144 78.3416 4.4C78.4696 4.656 78.5336 4.94933 78.5336 5.28C78.5336 5.54667 78.4856 5.792 78.3896 6.016C78.3043 6.24 78.1816 6.44267 78.0216 6.624C77.8616 6.80533 77.675 6.97067 77.4616 7.12C77.2483 7.26933 77.019 7.408 76.7736 7.536L78.2296 9.024L79.1256 7.456H80.8056L79.2056 9.968ZM77.1096 5.296C77.1096 5.02933 77.0243 4.82133 76.8536 4.672C76.683 4.52267 76.4696 4.448 76.2136 4.448C75.9363 4.448 75.7123 4.53867 75.5416 4.72C75.371 4.89067 75.2856 5.10933 75.2856 5.376C75.2856 5.76 75.5096 6.192 75.9576 6.672C76.3843 6.48 76.683 6.26667 76.8536 6.032C77.0243 5.78667 77.1096 5.54133 77.1096 5.296ZM75.4936 8.176C74.779 8.47467 74.4216 8.98667 74.4216 9.712C74.4216 10.0853 74.5443 10.3893 74.7896 10.624C75.0456 10.8587 75.371 10.976 75.7656 10.976C76.139 10.976 76.459 10.9013 76.7256 10.752C76.9923 10.6027 77.2163 10.4053 77.3976 10.16L75.4936 8.176ZM87.0479 0.672H90.9519C91.3785 0.672 91.8052 0.72 92.2319 0.815999C92.6585 0.911999 93.0372 1.072 93.3679 1.296C93.7092 1.52 93.9812 1.81333 94.1839 2.176C94.3972 2.53867 94.5039 2.992 94.5039 3.536C94.5039 4.16533 94.3225 4.69333 93.9599 5.12C93.5972 5.54667 93.1172 5.84 92.5199 6V6.032C92.8825 6.07467 93.2185 6.17067 93.5279 6.32C93.8372 6.45867 94.1039 6.64533 94.3279 6.88C94.5519 7.11467 94.7225 7.392 94.8399 7.712C94.9679 8.032 95.0319 8.38933 95.0319 8.784C95.0319 9.328 94.9199 9.80267 94.6959 10.208C94.4719 10.6133 94.1679 10.9493 93.7839 11.216C93.3999 11.472 92.9465 11.6693 92.4239 11.808C91.9119 11.936 91.3625 12 90.7759 12H87.0479V0.672ZM88.6319 5.456H90.6959C90.9945 5.456 91.2772 5.424 91.5439 5.36C91.8212 5.28533 92.0612 5.17867 92.2639 5.04C92.4665 4.89067 92.6265 4.70933 92.7439 4.496C92.8612 4.272 92.9199 4.00533 92.9199 3.696C92.9199 3.088 92.6959 2.656 92.2479 2.4C91.7999 2.13333 91.1972 2 90.4399 2H88.6319V5.456ZM88.6319 10.656H90.6159C90.9465 10.656 91.2772 10.6293 91.6079 10.576C91.9492 10.512 92.2532 10.4053 92.5199 10.256C92.7972 10.1067 93.0159 9.90933 93.1759 9.664C93.3465 9.408 93.4319 9.088 93.4319 8.704C93.4319 8.032 93.2025 7.54667 92.7439 7.248C92.2852 6.94933 91.6239 6.8 90.7599 6.8H88.6319V10.656ZM97.6015 12H95.9855L99.6335 3.424H101.058L104.69 12H103.026L102.226 10.016H98.4175L97.6015 12ZM98.8815 8.784H101.746L100.322 5.184L98.8815 8.784ZM107.614 7.088H107.646L111.15 3.424H113.198L109.182 7.376L113.422 12H111.326L107.646 7.76H107.614V12H106.078V3.424H107.614V7.088ZM116.005 10.704H120.373V12H114.485V3.424H120.181V4.704H116.005V6.96H119.957V8.192H116.005V10.704ZM124.13 12H122.594V3.424H125.65C126.077 3.424 126.477 3.46667 126.85 3.552C127.234 3.62667 127.57 3.75467 127.858 3.936C128.146 4.11733 128.37 4.36267 128.53 4.672C128.701 4.98133 128.786 5.36 128.786 5.808C128.786 6.43733 128.61 6.94933 128.258 7.344C127.917 7.73867 127.469 8.01067 126.914 8.16L129.138 12H127.362L125.362 8.384H124.13V12ZM124.13 7.136H125.458C125.693 7.136 125.917 7.11467 126.13 7.072C126.343 7.02933 126.53 6.96 126.69 6.864C126.861 6.75733 126.994 6.624 127.09 6.464C127.186 6.304 127.234 6.10133 127.234 5.856C127.234 5.632 127.186 5.44533 127.09 5.296C127.005 5.14667 126.882 5.02933 126.722 4.944C126.573 4.848 126.397 4.784 126.194 4.752C125.991 4.72 125.778 4.704 125.554 4.704H124.13V7.136Z" fill="#333333"/>
</svg>
